<svg width="24" height="24" viewBox="0 0 24 24" fill="none" xmlns="http://www.w3.org/2000/svg">
<path d="M4 4C2.89 4 2 4.89 2 6V18C2 18.5304 2.21071 19.0391 2.58579 19.4142C2.96086 19.7893 3.46957 20 4 20H20C20.5304 20 21.0391 19.7893 21.4142 19.4142C21.7893 19.0391 22 18.5304 22 18V8C22 6.89 21.1 6 20 6H12L10 4H4ZM4 8H20V18H4V8Z" fill="currentColor"/>
<path d="M5.5 9.41421H9.5V11.4142H5.5V9.41421Z" fill="currentColor"/>
<path d="M5.5 13.4142H9.5V15.4142H5.5V13.4142Z" fill="currentColor"/>
<path d="M18.5 15.4142H11V13.4142H18.5V15.4142Z" fill="currentColor"/>
<path d="M18.5 11.4142H11V9.41421H18.5V11.4142Z" fill="currentColor"/>
</svg>
